# xmcd
#
# Track frame offsets: 
#        150
#        16844
#        36110
#        59997
#        80871
#        102003
#        107982
#        121421
#        143472
#        158180
#        176192
#        181985
#        202168
#        219450
#
# Disc length: 3219 seconds
#
# Revision: 1
# Processed by: cddbd v1.5.2PL0 Copyright (c) Steve Scherf et al.
# Submitted via: ExactAudioCopy v0.99pb1
#
DISCID=cd0c910e
DTITLE=Billy's Band - Оторвемся По-Питерски
DYEAR=2005
DGENRE=Blues
TTITLE0=Оторвемся По-Питерски
TTITLE1=Я Не Вернусь
TTITLE2=В Голове Блюз
TTITLE3=Я Послала Любовь
TTITLE4=Так Я Падал
TTITLE5=Упражнение В ...  (Инструментал)
TTITLE6=32 Рубля
TTITLE7=Где Спит Твое Сердце
TTITLE8=Не Верь Мужикам
TTITLE9=В Этом Городе
TTITLE10=Зимнее Утро (Инструментал)
TTITLE11=Кладбище Девичьих Сердец
TTITLE12=Оторвемся По-Питерски (Джаз-Версия)
TTITLE13=Кладбище Девичьих Сердец (Синг-Версия)
EXTD=
EXTT0=
EXTT1=
EXTT2=
EXTT3=
EXTT4=
EXTT5=
EXTT6=
EXTT7=
EXTT8=
EXTT9=
EXTT10=
EXTT11=
EXTT12=
EXTT13=
PLAYORDER=
